<?xml version="1.0" encoding="utf-8"?>
<!-- Generator: Adobe Illustrator 21.0.0, SVG Export Plug-In . SVG Version: 6.00 Build 0)  -->
<svg version="1.1" id="Layer_1" xmlns="http://www.w3.org/2000/svg" xmlns:xlink="http://www.w3.org/1999/xlink" x="0px" y="0px"
	 viewBox="0 0 512 132" style="enable-background:new 0 0 512 132;" xml:space="preserve">
<style type="text/css">
	.st0{fill:#BF9958;}
</style>
<g>
	<path class="st0" d="M395,20l-16.7,42.4c-0.5,1.1-0.9,2.3-0.9,3.5c0,1.8,1.3,3.1,4.2,4.1h-21.4c3.2-0.9,5.7-3.2,6.8-6.3l28-62.9
		l28,63c1.1,3.1,3.7,5.5,6.8,6.3h-21.4c2.8-1.1,4.2-2.3,4.2-4.1c-0.1-1.2-0.4-2.4-0.9-3.5C411.6,62.4,395,20,395,20z M38.3,7.6
		c-15.8,0-26,11-26,27.7c0,16.8,9.8,27.8,25.8,27.8c8.5,0.2,16.6-3.6,21.9-10.2l-1.2,13.9c-7.3,2.6-14.9,3.9-22.5,4
		c-22.5,0-36.3-15.6-36.3-35c0-20.2,15.2-34.8,36.2-34.8c6,0.3,11.9,0.8,17.8,1.6c1.6,0.1,3.1-0.8,3.8-2.2v16.1
		C57.9,16.4,53,7.6,38.3,7.6z M121.4,63.1c-12.4,0-22-12.2-22-28c0-15.6,9.7-27.2,22.8-27.2c13.3,0,22,10.8,22,27.4
		C144.3,51.7,134.7,63.1,121.4,63.1L121.4,63.1z M121.8,0.9c-20.1,0-33.8,14-33.8,34.4c-0.4,9.2,3,18.2,9.3,24.9
		c6.4,6.7,15.2,10.5,24.5,10.6c19.1,0,33.6-15.4,33.6-35.4C155.5,14.9,141.7,0.9,121.8,0.9z M237.3,49.9V13.6
		c0-7.3-0.7-8.5-5.9-10.2h20c-4.7,2.2-5,3.1-5,10.3v57.6l-51.5-48.8v37.7c0,6.6,0.8,7.8,6.4,9.8h-21.5c4.1-1.5,5.7-3.2,5.7-9.7V0.8
		L237.3,49.9L237.3,49.9z M327.4,19.8c0.3,3.7-0.9,7.3-3.1,10.2c-2.2,3-5.4,5-9,5.8l13,15.7c5,6.9,10.8,13.2,17.6,18.4h-14.5
		l-28.4-34.8c6.8-1.5,13.2-5.6,13.2-13.4c-0.1-4.9-3.2-9.2-7.9-10.8c-1.5-0.5-3.1-0.7-4.7-0.6c-2.1,0-4.3,0.3-6.4,0.9V56
		c0,4.6,0.1,12.3,6.2,14.2h-1.7h-18.5h-1.6c6.5-1.8,6.1-9.6,6.1-14.2V17.9c0-4.6,0.8-12.5-5-14.2h23.7C315.1,3.6,327.4,7,327.4,19.8
		 M474.1,62.3h-5c-4.1,0-5.6-1.6-5.6-6.3V10.2h9.6c7.3-0.5,14.4,2.2,19.6,7.3s7.9,12.3,7.3,19.6C500.1,52.7,489.4,62.2,474.1,62.3
		L474.1,62.3L474.1,62.3z M512,36.8c0-22.5-16.8-33.2-38.8-33.2h-25.2c5.7,2,6,3.4,6,9.9v46.8c0,6.5-1.5,8.2-6,9.6h21.5
		C495.7,70,512,58.2,512,36.8 M66.3,118.5c0.1,0,0.2-0.1,0.2-0.2v-0.6c0-4.4,0-5.3-0.1-6.2c-0.1-0.9-0.3-1.5-1.3-1.6
		c-0.3-0.1-0.8-0.1-1.1-0.1c-0.3,0-0.5-0.1-0.5-0.3s0.2-0.3,0.6-0.3c1.5,0,3.4,0.1,4.2,0.1c0.7,0,2.6-0.1,3.7-0.1
		c0.4,0,0.6,0.1,0.6,0.3s-0.2,0.3-0.5,0.3c-0.3,0-0.6,0-0.9,0.1c-0.8,0.2-1,0.6-1,1.6c-0.1,1-0.1,1.8-0.1,6.2v5.1
		c-0.1,2,0,4.2,0.2,6.2c0.1,0.9,0.3,1.5,1.1,1.5c0.5,0.1,1,0.1,1.5,0.1c0.3,0,0.4,0.1,0.4,0.3c0,0.2-0.3,0.3-0.6,0.3
		c-1.9,0-3.8-0.1-4.6-0.1c-0.7,0-2.6,0.1-3.7,0.1c-0.4,0-0.6-0.1-0.6-0.3c0-0.2,0.1-0.3,0.5-0.3c0.3,0,0.7,0,1-0.1
		c0.6-0.1,0.8-0.8,0.9-1.6c0.2-1.2,0.2-3.5,0.2-6.2v-2.6c0-0.1,0-0.1-0.1-0.1l-0.1-0.1h-11c-0.1,0-0.2,0-0.2,0.2v2.6
		c0,2.7,0,5,0.2,6.2c0.1,0.9,0.3,1.5,1.2,1.5c0.5,0.1,1,0.1,1.5,0.1c0.3,0,0.4,0.1,0.4,0.3s-0.3,0.3-0.6,0.3c-1.9,0-3.8-0.1-4.6-0.1
		c-0.7,0-2.5,0.1-3.7,0.1c-0.4,0-0.6-0.1-0.6-0.3s0.2-0.3,0.4-0.3c0.3,0,0.7,0,1-0.1c0.6-0.1,0.8-0.8,0.9-1.6c0.2-2,0.3-4.1,0.2-6.2
		v-5.1c0-4.4,0-5.3-0.1-6.2c-0.1-0.9-0.3-1.5-1.3-1.6c-0.3-0.1-0.8-0.1-1.2-0.1c-0.3,0-0.4-0.1-0.4-0.3s0.2-0.3,0.6-0.3
		c1.6,0,3.4,0.1,4.2,0.1c0.7,0,2.6-0.1,3.7-0.1c0.4,0,0.6,0.1,0.6,0.3s-0.2,0.3-0.5,0.3c-0.3,0-0.6,0-0.9,0.1
		c-0.8,0.2-1,0.6-1.1,1.6c-0.1,1-0.1,1.8-0.1,6.2v0.6c0,0.2,0.1,0.2,0.2,0.2C55.1,118.5,66.3,118.5,66.3,118.5z M94,130.2
		c-5.6,0-9-4.8-9-10.9c0-7.3,3.8-9.1,7.2-9.1c4.8,0,8.6,4.1,8.6,10.6C100.8,129.2,96,130.3,94,130.2C94,130.3,94,130.2,94,130.2z
		 M93,108.7c-4.8-0.2-9.1,2.5-11.1,6.8c-2.6,5.8,0.1,12.6,5.9,15.1c0.2,0.1,0.3,0.1,0.4,0.2c1.5,0.6,3,0.9,4.5,0.9
		c5,0.3,9.5-2.7,11.4-7.3c0.6-1.5,0.9-3.1,0.8-4.7c0.1-3.1-1.1-6.1-3.4-8.2C99.2,109.4,96.1,108.4,93,108.7 M119.3,110.8l-4.4,0.1
		c-1.7,0.1-2.4,0.2-2.8,0.9c-0.2,0.3-0.4,0.7-0.5,1c-0.1,0.3-0.2,0.3-0.3,0.3c-0.2,0-0.3-0.2-0.3-0.4c0-0.4,0.6-3.2,0.6-3.3
		c0.1-0.4,0.2-0.6,0.3-0.6c0.4,0.2,0.9,0.3,1.3,0.3c0.9,0.1,2,0.2,2.9,0.2h11.6c0.7,0,1.4-0.1,2-0.2c0.3-0.1,0.5-0.1,0.8-0.2
		c0.2,0,0.3,0.2,0.3,0.6c0,0.6-0.1,2.6-0.1,3.4c0,0.3-0.1,0.4-0.3,0.4c-0.2,0-0.3-0.2-0.3-0.6l-0.1-0.3c-0.1-0.8-0.9-1.6-3.4-1.6
		l-3.7-0.1v12c0,2.7,0,5,0.2,6.2c0.1,0.9,0.3,1.5,1.1,1.5c0.5,0.1,1,0.1,1.5,0.1c0.3,0,0.4,0.1,0.4,0.3s-0.2,0.3-0.5,0.3
		c-2,0-3.8-0.1-4.6-0.1c-0.7,0-2.5,0.1-3.7,0.1c-0.4,0-0.6-0.1-0.6-0.3s0.2-0.3,0.5-0.3c0.3,0,0.7,0,1-0.1c0.6-0.1,0.8-0.8,0.9-1.6
		c0.2-1.2,0.2-3.5,0.2-6.2L119.3,110.8L119.3,110.8z M142.6,117.6c0-4.4,0-5.3-0.1-6.2c0-0.9-0.3-1.5-1.3-1.6
		c-0.3-0.1-0.8-0.1-1.1-0.1c-0.3,0-0.5-0.1-0.5-0.3s0.2-0.3,0.7-0.3c0.8,0,1.6,0,2.4,0s1.5,0.1,1.8,0.1c0.9,0,6.7,0,7.3,0
		s1-0.1,1.3-0.2c0.2-0.1,0.3-0.1,0.4-0.2c0.2,0,0.2,0.2,0.2,0.3c-0.1,0.6-0.2,1.3-0.3,1.9c0,0.3-0.1,1.5-0.2,1.9
		c0,0.2-0.1,0.3-0.3,0.3c-0.2,0-0.3-0.2-0.3-0.4c0-0.3-0.1-0.7-0.2-1c-0.2-0.5-0.5-0.9-2-1.1c-0.5-0.1-3.6-0.1-4.2-0.1
		c-0.2,0-0.2,0.1-0.2,0.3v7.4c0,0.2,0,0.3,0.2,0.3c0.7,0,4,0,4.7-0.1c0.5,0,1-0.2,1.4-0.4c0.2-0.2,0.3-0.3,0.4-0.3
		c0.2,0,0.2,0.1,0.2,0.3c0,0.2-0.1,0.7-0.3,2.1c0,0.6-0.2,1.8-0.2,2s0,0.5-0.3,0.5c-0.2,0-0.3-0.1-0.3-0.2c0,0,0,0,0-0.1
		c0-0.3-0.1-0.7-0.2-1.1c-0.2-0.6-0.5-1-1.6-1.1c-1.4-0.1-2.8-0.1-4.2-0.1c-0.2,0-0.2,0.2-0.2,0.3v2.3c0,1,0,3.7,0,4.5
		c0.1,2,0.5,2.5,3.5,2.5c0.9,0.1,1.9-0.1,2.7-0.3c0.8-0.3,1.1-0.9,1.4-2.1c0.1-0.3,0.2-0.4,0.3-0.4c0.2,0,0.3,0.3,0.3,0.5
		c-0.1,1.1-0.2,2.1-0.4,3.2c-0.2,0.8-0.4,0.8-1.5,0.8c-2.2,0-3.8-0.1-5.1-0.1s-2.1-0.1-3.1-0.1c-0.3,0-0.9,0-1.7,0.1
		c-0.7,0-1.5,0-2,0c-0.4,0-0.6-0.1-0.6-0.3s0.1-0.3,0.5-0.3c0.3,0,0.7,0,1-0.1c0.6-0.1,0.8-0.8,0.9-1.6c0.2-1.2,0.2-3.5,0.2-6.2
		L142.6,117.6L142.6,117.6z M171.3,122.7c0,3.8,0,5.7,0.6,6.3c0.5,0.4,1.3,0.6,3.5,0.6c1.5,0,2.7,0,3.4-0.9c0.4-0.5,0.7-1.1,0.8-1.8
		c0-0.3,0.1-0.4,0.3-0.4c0.3,0,0.3,0.2,0.3,0.5c-0.1,1.1-0.3,2.2-0.4,3.3c-0.2,0.6-0.3,0.8-1.8,0.8c-2.1,0-3.7-0.1-5-0.1
		s-2.4-0.1-3.6-0.1c-0.3,0-0.9,0-1.6,0c-0.7,0.1-1.5,0.1-2,0.1c-0.4,0-0.6-0.1-0.6-0.3c0-0.2,0.1-0.3,0.4-0.3c0.3,0,0.7,0,1-0.1
		c0.6-0.1,0.8-0.8,0.9-1.6c0.2-1.2,0.2-3.5,0.2-6.2v-5.1c0-4.4,0-5.3-0.1-6.2c-0.1-0.9-0.3-1.5-1.3-1.6c-0.3-0.1-0.6-0.1-0.9-0.1
		c-0.3,0-0.5-0.1-0.5-0.3c0-0.2,0.2-0.3,0.6-0.3c1.4,0,3.2,0.1,4,0.1c0.8,0,2.9-0.1,4-0.1c0.4,0,0.6,0.1,0.6,0.3
		c0,0.2-0.2,0.3-0.5,0.3s-0.8,0-1.1,0.1c-0.8,0.2-1,0.6-1.1,1.6c-0.1,1-0.1,1.8-0.1,6.2L171.3,122.7L171.3,122.7z M190.1,130.9
		c-0.5-0.2-0.6-0.3-0.6-0.9c0-1.6,0.1-3.4,0.2-3.8c0-0.4,0.1-0.8,0.3-0.8c0.3,0,0.3,0.3,0.3,0.5c0,0.5,0.1,1,0.3,1.5
		c0.5,1.9,2.2,3.1,4.2,3c2,0.2,3.7-1.2,3.9-3.2c0-0.1,0-0.1,0-0.2c0-1.5-0.4-2.8-2.9-4.7l-1.4-1c-2.5-1.5-4.1-4-4.4-6.9
		c0-3.2,2.7-5.6,6.7-5.6c1.3,0,2.6,0.2,3.9,0.5c0.3,0.1,0.4,0.2,0.4,0.3c0,0.4-0.2,1.2-0.2,3.5c0,0.6-0.1,0.9-0.3,0.9
		s-0.3-0.2-0.3-0.5c-0.2-2-2-3.5-3.9-3.3c-2.2,0-3.5,1.3-3.5,3c0,1.4,0.7,2.4,3.1,4.2l0.9,0.6c3.6,2.6,4.8,4.7,4.8,7.4
		c0,2-1,4-2.7,5.1c-1.4,0.9-3.1,1.3-4.7,1.2C192.9,131.7,191.5,131.5,190.1,130.9 M236.5,129.8c-2.4,0-4.5-1.5-5.3-3.8
		c-0.3-0.7-0.3-1.5-0.3-2.2c-0.1-1.7,0.7-3.4,2-4.4c0.5,0.7,2.4,2.8,3.2,3.7c0.8,0.9,3.6,3.6,5.3,5
		C240,129.2,238.3,129.8,236.5,129.8L236.5,129.8L236.5,129.8z M252.1,130.7c-1.1-0.1-2.1-0.4-3.2-1c-1.5-0.9-2.8-1.8-4.1-2.9
		c1.7-2,2.7-4.4,2.9-6.9c0-0.3-0.4-0.5-1-0.6c-1.2-0.2-2.3-0.2-3.5-0.2c-0.3,0-0.5,0.1-0.5,0.3s0.2,0.3,0.3,0.3c0.5,0,1,0.2,1.5,0.4
		c0.3,0.3,0.6,0.9,0.5,1.4c-0.1,1.6-0.5,3.2-1.4,4.5c-0.5-0.5-4.2-3.8-5.2-4.9c-2.3-2.6-4.9-5-4.9-7.7c-0.1-1.7,1.2-3.2,2.9-3.3
		c0.1,0,0.2,0,0.3,0c1.2-0.1,2.4,0.4,3.2,1.3c0.6,0.7,0.9,1.5,0.9,2.5c0,0.4,0,0.5,0.2,0.5s0.3-0.1,0.3-0.5c0.2-1.3,0.3-2.5,0.3-3.8
		c0-0.3,0-0.6-0.5-0.8c-1.1-0.4-2.3-0.6-3.6-0.6c-5.1,0-7.2,3.1-7.2,5.4c0,1.5,0.5,3,1.5,4.2c-2.7,1.3-4.5,3.9-4.8,6.9
		c0,2.6,1.9,6.5,8.1,6.5c2.6,0.1,5.1-0.9,7-2.6c1.9,1.7,4.4,2.6,6.9,2.2h2.2c0.6,0,0.9-0.1,0.9-0.3
		C252.5,130.8,252.4,130.7,252.1,130.7 M284.6,120.3c-0.6,0.4-1.4,0.6-2,0.5c-0.8,0-1.5-0.1-2.2-0.3c-0.3-0.1-0.3-0.2-0.3-0.5v-8.9
		c0-0.3,0.1-0.3,0.3-0.4c0.5-0.1,1-0.2,1.5-0.1c2,0.1,3.8,1.5,4.4,3.4c0.2,0.6,0.3,1.3,0.1,2C286.4,117.5,285.9,119.2,284.6,120.3
		L284.6,120.3z M296.4,130.7c-0.3,0-0.5,0-0.9-0.1c-1.3-0.3-2.5-0.9-3.2-2c-1.8-1.8-3.8-4.4-6.4-7.7c2.3-1.5,3.8-3.8,3.8-6.6
		c0-1.5-0.8-3.1-2-4c-1.6-0.9-3.5-1.4-5.4-1.3c-0.9,0-3.2,0.1-4.2,0.1c-0.6,0-2.5-0.1-4-0.1c-0.4,0-0.7,0.1-0.7,0.3s0.2,0.3,0.5,0.3
		c0.3,0,0.8,0,1.1,0.1c0.9,0.2,1.2,0.7,1.3,1.6c0,0.9,0.1,1.8,0.1,6.2v5.1c0,2.7,0,5-0.2,6.2c-0.1,0.9-0.3,1.5-0.9,1.6
		c-0.3,0.1-0.7,0.1-1,0.1s-0.4,0.1-0.4,0.3s0.2,0.3,0.6,0.3c1.2,0,3-0.1,3.6-0.1c0.4,0,2.6,0.1,4.3,0.1c0.4,0,0.6-0.1,0.6-0.3
		s-0.1-0.3-0.3-0.3c-0.5,0-0.9,0-1.5-0.1c-0.9-0.1-1-0.8-1.1-1.6c-0.2-1.2-0.2-3.5-0.2-6.2v-0.3c0-0.2,0.1-0.3,0.3-0.3l2.6,0.1
		c0.2,0,0.4,0.1,0.5,0.2c0.4,0.4,1.8,2.4,2.9,4c1,1.7,2.4,3.2,4,4.3c1,0.4,2,0.7,3.2,0.5h2.8c0.3,0,0.5,0,0.5-0.3
		C296.7,130.8,296.6,130.7,296.4,130.7 M305.1,117.6c0-4.4,0-5.3,0-6.2c-0.1-0.9-0.3-1.5-1.3-1.6c-0.3-0.1-0.8-0.1-1.1-0.1
		c-0.3,0-0.5-0.1-0.5-0.3s0.3-0.3,0.7-0.3c0.8,0,1.6,0,2.4,0c0.8,0,1.5,0.1,1.8,0.1c0.9,0,6.8,0,7.3,0c0.5,0,1-0.1,1.3-0.2
		c0.2-0.1,0.3-0.1,0.4-0.2c0.2,0,0.2,0.2,0.2,0.3c0,0.3-0.2,0.6-0.3,1.9c0,0.7-0.1,1.3-0.2,1.9c0,0.2-0.1,0.3-0.3,0.3
		c-0.2,0-0.3-0.2-0.3-0.4c0-0.3-0.1-0.7-0.2-1c-0.2-0.5-0.5-0.9-2-1.1c-0.5-0.1-3.6-0.1-4.2-0.1c-0.2,0-0.2,0.1-0.2,0.3v7.4
		c0,0.2,0,0.3,0.2,0.3c0.6,0,4,0,4.7-0.1c0.5,0,1-0.2,1.5-0.4c0.2-0.2,0.3-0.3,0.4-0.3h0.1c0.1,0,0.2,0.1,0.1,0.2
		c0,0.2-0.1,0.7-0.3,2.1c0,0.6-0.1,1.8-0.1,2s0,0.5-0.3,0.5c-0.2,0-0.3-0.1-0.3-0.3c0-0.3,0-0.7-0.1-1.1c-0.2-0.6-0.6-1-1.6-1.1
		c-0.6-0.1-3.5-0.1-4.2-0.1c-0.2,0-0.2,0.2-0.2,0.3v2.3c0,1,0,3.7,0,4.5c0.1,2,0.5,2.5,3.5,2.5c0.9,0.1,1.9-0.1,2.7-0.3
		c0.8-0.3,1.1-0.9,1.3-2.1c0.1-0.3,0.1-0.4,0.3-0.4c0.2,0,0.3,0.3,0.3,0.5c-0.1,1.1-0.2,2.1-0.3,3.2c-0.2,0.8-0.4,0.8-1.6,0.8
		c-2.2,0-3.8-0.1-5.1-0.1s-2.1-0.1-3.1-0.1c-0.3,0-0.9,0-1.7,0.1c-0.7,0-1.5,0-2,0c-0.4,0-0.6-0.1-0.6-0.3c0-0.2,0.1-0.3,0.4-0.3
		s0.7,0,1-0.1c0.6-0.1,0.8-0.8,0.9-1.6c0.2-1.2,0.2-3.5,0.2-6.2L305.1,117.6C305.1,117.6,305.1,117.6,305.1,117.6z M328.5,130.9
		c-0.5-0.2-0.6-0.3-0.6-0.9c0-1.6,0.2-3.4,0.2-3.8c0-0.4,0.1-0.8,0.3-0.8c0.3,0,0.3,0.3,0.3,0.5c0,0.5,0.1,1,0.3,1.5
		c0.5,1.9,2.3,3.1,4.2,3c2,0.2,3.8-1.2,3.9-3.2V127c0-1.5-0.4-2.8-2.9-4.7l-1.4-1c-2.5-1.5-4.1-4-4.4-6.9c0-3.2,2.7-5.6,6.7-5.6
		c1.3,0,2.6,0.2,3.9,0.5c0.3,0.1,0.4,0.2,0.4,0.3c0,0.4-0.1,1.2-0.1,3.5c0,0.6-0.1,0.9-0.3,0.9c-0.3,0-0.3-0.2-0.3-0.5
		c-0.1-0.7-0.3-1.4-0.8-1.9c-0.8-1-2-1.5-3.2-1.5c-1.7-0.3-3.2,0.9-3.5,2.6c0,0.1,0,0.3,0,0.3c0,1.4,0.7,2.4,3.1,4.2l0.8,0.6
		c3.6,2.6,4.9,4.7,4.9,7.4c0,2-1,4-2.7,5.1c-1.4,0.9-3,1.3-4.7,1.2C331.3,131.7,329.8,131.5,328.5,130.9 M363.5,130.2
		c-5.6,0-9-4.8-9-10.9c0-7.3,3.8-9.1,7.3-9.1c4.8,0,8.5,4.1,8.5,10.6C370.2,129.2,365.4,130.3,363.5,130.2L363.5,130.2L363.5,130.2z
		 M362.5,108.7c-4.8-0.2-9.1,2.5-11.1,6.8c-1.9,4.4-0.9,9.4,2.4,12.7c2.2,2.2,5.2,3.4,8.4,3.3c5,0.3,9.5-2.7,11.4-7.3
		c0.6-1.5,0.9-3.1,0.8-4.7c0.2-4.8-2.8-9.1-7.3-10.5C365.5,108.7,364,108.6,362.5,108.7 M417.5,110.8l-4.4,0.1
		c-1.7,0.1-2.4,0.2-2.8,0.9c-0.2,0.3-0.3,0.7-0.5,1c-0.1,0.3-0.2,0.3-0.3,0.3c-0.2,0-0.3-0.2-0.3-0.4c0-0.4,0.5-3.2,0.6-3.3
		c0.1-0.4,0.2-0.6,0.3-0.6c0.4,0.2,0.9,0.3,1.3,0.3c0.9,0.1,2,0.2,2.9,0.2H426c0.7,0,1.4-0.1,2-0.2c0.3-0.1,0.5-0.1,0.8-0.2
		c0.2,0,0.3,0.2,0.3,0.6c0,0.6-0.1,2.6-0.1,3.4c0,0.3-0.1,0.4-0.3,0.4c-0.3,0-0.3-0.2-0.3-0.6v-0.3c-0.1-0.8-0.9-1.6-3.4-1.6
		l-3.7-0.1v12c-0.1,2,0,4.2,0.2,6.2c0.1,0.9,0.3,1.5,1.1,1.5c0.5,0.1,1,0.1,1.5,0.1c0.3,0,0.4,0.1,0.4,0.3s-0.3,0.3-0.5,0.3
		c-2,0-3.8-0.1-4.6-0.1c-0.7,0-2.6,0.1-3.7,0.1c-0.4,0-0.6-0.1-0.6-0.3s0.1-0.3,0.4-0.3s0.7,0,1-0.1c0.6-0.1,0.8-0.8,0.9-1.6
		c0.2-1.2,0.2-3.5,0.2-6.2C417.6,122.8,417.5,110.8,417.5,110.8z M439.3,130.9c-0.4-0.2-0.6-0.3-0.6-0.9c0-1.6,0.2-3.4,0.2-3.8
		c0-0.4,0.2-0.8,0.3-0.8c0.2,0,0.3,0.3,0.3,0.5c0,0.5,0.1,1,0.3,1.5c0.5,1.9,2.3,3.1,4.2,3c2,0.2,3.8-1.2,3.9-3.2c0-0.1,0-0.1,0-0.2
		c0-1.5-0.4-2.8-2.9-4.7l-1.4-1c-2.5-1.5-4.1-4-4.4-6.9c0-3.2,2.7-5.6,6.7-5.6c1.3,0,2.6,0.2,3.9,0.5c0.3,0.1,0.4,0.2,0.4,0.3
		c0,0.4-0.1,1.2-0.1,3.5c0,0.6-0.1,0.9-0.3,0.9c-0.3,0-0.3-0.2-0.3-0.5c-0.1-0.7-0.3-1.4-0.8-1.9c-0.8-1-2-1.5-3.2-1.5
		c-1.4-0.2-2.6,0.5-3.2,1.7c-0.2,0.4-0.3,0.9-0.3,1.3c0,1.4,0.7,2.4,3.1,4.2l0.9,0.6c3.6,2.6,4.8,4.7,4.8,7.4c0,2-1,4-2.7,5.1
		c-1.4,0.9-3,1.3-4.6,1.2C442.1,131.7,440.7,131.5,439.3,130.9 M394.2,120.3c-0.6,0.4-1.4,0.6-2,0.5c-0.8,0-1.5-0.1-2.2-0.3
		c-0.2-0.1-0.3-0.2-0.3-0.5v-8.9c0-0.3,0.1-0.3,0.3-0.4c0.5-0.1,1-0.2,1.5-0.1c2.6,0.1,4.6,2.3,4.5,4.9c0,0.2,0,0.3,0,0.5
		C396.1,117.5,395.5,119.2,394.2,120.3L394.2,120.3z M406,130.7c-0.3,0-0.5,0-0.9-0.1c-1.3-0.3-2.5-0.9-3.2-2
		c-1.7-1.8-3.8-4.4-6.3-7.7c2.3-1.5,3.8-3.8,3.8-6.6c0-1.5-0.8-3.1-2-4c-1.6-0.9-3.5-1.4-5.4-1.3c-0.9,0-3.2,0.1-4.1,0.1
		c-0.6,0-2.5-0.1-4-0.1c-0.4,0-0.6,0.1-0.6,0.3s0.2,0.3,0.5,0.3c0.4,0,0.8,0,1.2,0.1c0.9,0.2,1.2,0.7,1.3,1.6
		c0.1,0.9,0.1,1.8,0.1,6.2v5.1c0,2.7,0,5-0.1,6.2c-0.2,0.9-0.3,1.5-0.9,1.6c-0.3,0.1-0.7,0.1-1,0.1c-0.3,0-0.4,0.1-0.4,0.3
		s0.2,0.3,0.6,0.3c1.2,0,3-0.1,3.6-0.1c0.4,0,2.6,0.1,4.4,0.1c0.4,0,0.6-0.1,0.6-0.3s-0.2-0.3-0.3-0.3c-0.5,0-0.9-0.1-1.5-0.1
		c-0.9-0.1-1-0.8-1.1-1.6c-0.2-1.2-0.2-3.5-0.2-6.2v-0.3c0-0.2,0.1-0.3,0.3-0.3l2.6,0.1c0.2,0,0.4,0.1,0.5,0.2
		c0.3,0.4,1.7,2.4,2.9,4c1,1.7,2.4,3.2,4,4.3c0.9,0.4,2,0.7,3.2,0.5h2.8c0.3,0,0.6,0,0.6-0.3C406.4,130.8,406.3,130.7,406,130.7
		 M460.7,110.3h2.2v7.3h1.1v-7.3h2.3v-1.1h-5.6V110.3z M475.2,109.2l-3.1,4.1l-3.2-4.1h-1v8.4h1.1v-6.1v-0.3c0,0.1,0.1,0.2,0.2,0.2
		l2.6,3.4h0.5l2.6-3.5c0.1-0.1,0.1-0.2,0.1-0.2c0,0.1,0,0.3-0.1,0.3v6.1h1.2v-8.4C476.4,109.2,475.2,109.2,475.2,109.2z"/>
</g>
</svg>
