<?xml version="1.0" standalone="no"?>
<!DOCTYPE svg PUBLIC "-//W3C//DTD SVG 20010904//EN"
 "http://www.w3.org/TR/2001/REC-SVG-20010904/DTD/svg10.dtd">
<svg version="1.0" xmlns="http://www.w3.org/2000/svg"
 width="512.000000pt" height="512.000000pt" viewBox="0 0 512.000000 512.000000"
 preserveAspectRatio="xMidYMid meet">

<g transform="translate(0.000000,512.000000) scale(0.100000,-0.100000)"
fill="#000000" stroke="none">
<path d="M2704 4332 c-7 -5 -8 -51 -3 -142 10 -184 10 -2450 0 -2623 -5 -81
-13 -143 -19 -149 -7 -7 -12 -24 -12 -38 0 -31 -37 -147 -57 -175 -7 -11 -13
-27 -13 -37 0 -9 -9 -22 -20 -28 -11 -6 -20 -18 -20 -27 0 -16 -104 -144 -124
-153 -7 -3 -19 -11 -27 -18 -43 -38 -198 -122 -224 -122 -21 0 -30 -21 -14
-31 17 -11 67 -2 94 17 11 8 30 14 43 14 13 0 42 8 65 18 23 10 62 27 87 37
25 10 52 24 60 31 8 6 26 15 39 19 22 7 211 184 211 198 0 3 16 29 35 58 19
30 35 60 35 67 0 8 9 25 20 39 11 14 20 40 20 57 0 17 6 41 14 52 8 11 17 46
21 79 3 33 10 92 15 130 5 39 12 656 15 1373 3 930 8 1309 16 1324 9 16 8 23
-2 29 -17 11 -240 12 -255 1z"/>
</g>
</svg>
