<?xml version="1.0" encoding="UTF-8" standalone="no"?>
<!-- Created with Inkscape (http://www.inkscape.org/) -->

<svg
   xmlns:dc="http://purl.org/dc/elements/1.1/"
   xmlns:cc="http://creativecommons.org/ns#"
   xmlns:rdf="http://www.w3.org/1999/02/22-rdf-syntax-ns#"
   xmlns:svg="http://www.w3.org/2000/svg"
   xmlns="http://www.w3.org/2000/svg"
   xmlns:xlink="http://www.w3.org/1999/xlink"
   version="1.1"
   width="946.04541"
   height="226.371"
   viewBox="0 0 946.04539 226.371"
   id="レイヤー_1"
   xml:space="preserve"><metadata
   id="metadata3652"><rdf:RDF><cc:Work
       rdf:about=""><dc:format>image/svg+xml</dc:format><dc:type
         rdf:resource="http://purl.org/dc/dcmitype/StillImage" /><dc:title></dc:title></cc:Work></rdf:RDF></metadata><defs
   id="defs3650" />
<path
   d="m 166.97942,-59.494 c 1,0 2,0 3,0 0.667,0 1.333,0 2,0 0,1.333 0,2.667 0,4 0,1.667 0,3.333 0,5 10.667,0 21.333,0 32,0 0,-1 0,-2 0,-3 0,-1.667 0,-3.333 0,-5 0,-0.125 -0.083,-0.928 0,-1 0.376,-0.331 1.556,0.253 2,0 1,0 2,0 3,0 0,1 0,2 0,3 0,1.333 0,2.667 0,4 0,1.333 0,2.667 0,4 0,1.333 0,2.667 0,4 0,1.313 0.119,2.692 0,4 -0.003,0.029 -0.931,-0.024 -1,0 -0.133,0.199 0.167,0.833 0,1 -0.095,0.095 -0.854,-0.009 -1,0 -0.245,0.013 -0.781,-0.104 -1,0 -0.134,0.063 0.112,0.888 0,1 -0.095,0.095 -0.854,-0.009 -1,0 -0.327,0.017 -0.676,-0.044 -1,0 -1.623,0.223 -3.362,-0.083 -5,0 -3.645,0.186 -7.35,0 -11,0 -3.662,0 -7.561,0 -11,0 -1.667,0 -3.333,0 -5,0 -1.667,0 -3.333,0 -5,0 0,-0.667 0,-1.333 0,-2 12.333,0 24.667,0 37,0 0,-2.333 0,-4.667 0,-7 -1.667,0 -3.333,0 -5,0 -1.667,0 -3.333,0 -5,0 -2.737,0 -6.263,0.054 -9,0 -1.665,-0.033 -3.334,0 -5,0 -1.957,0 -3.458,0 -6,0 -0.243,0 -0.779,0.095 -1,0 -0.125,-0.055 0.105,-0.896 0,-1 -0.124,-0.124 -0.82,0.047 -1,0 -0.625,-0.164 -1.374,0.156 -2,0 -0.178,-0.044 -0.878,0.122 -1,0 -0.167,-0.167 0.133,-0.801 0,-1 -0.214,-0.134 -0.816,0.166 -1,0 -0.169,-0.152 0.162,-0.839 0,-1 -0.105,-0.104 -0.946,0.125 -1,0 -0.222,-0.52 0.075,-1.435 0,-2 -0.173,-1.312 0.133,-2.685 0,-4 0,-1 0,-2 0,-3 z"
   id="path3543"
   style="display:none" />

<g
   transform="translate(-27.020584,-24.215)"
   id="g3603">
	<g
   id="g3605">
		<defs
   id="defs3607">
			<path
   d="m 40.595,210.875 c -1.172,-7.81 9.41,-10.222 25.038,-8.76 10.875,0.657 33.355,8.028 44.745,11.239 -8.903,4.38 -26.13,8.761 -42.337,8.836 h -0.293 c -9.854,0 -25.918,-3.287 -27.153,-11.315 m 148.769,6.494 c -10.439,-0.657 -23.358,-3.651 -34.892,-6.205 11.382,-7.006 26.202,-15.181 41.609,-18.174 15.469,-2.995 25.402,-1.973 32.696,0.875 9.205,3.576 7.668,12.922 0.951,17.228 -7.223,4.598 -17.441,6.641 -30.289,6.641 -3.215,0 -6.574,-0.071 -10.075,-0.365 m -23.802,-57.667 1.314,-3.141 c 1.901,-3.869 4.087,-10.364 5.695,-15.695 9.053,-30.076 10.004,-49.054 25.988,-78.689 18.979,14.598 22.559,35.255 14.527,61.097 -7.668,24.748 -26.938,34.602 -38.472,36.063 -1.894,0.219 -4.309,0.436 -6.566,0.436 -0.879,0.001 -1.75,0.001 -2.486,-0.071 M 191.994,52.759 C 178.774,46.336 163.083,42.976 144.976,43.27 89.205,44.292 42.488,82.177 43.581,134.007 c 0.443,25.331 18.907,37.593 40.08,37.668 34.02,0.364 61.03,-33.58 55.842,-68.4 -2.187,-15.695 -11.168,-23.652 -20.071,-23.944 -11.461,-0.658 -19.058,7.446 -21.679,12.558 -1.973,3.43 -3.217,6.789 -4.602,10.583 l 2.336,0.804 c 0,0 6.646,-20.511 23.43,-19.636 7.303,0.364 13.655,8.321 14.677,18.907 l 0.072,0.435 c 2.336,24.163 -19.343,65.7 -50.44,64.46 C 67.234,166.42 60.153,150.796 60.081,134.226 60.232,84.95 95.195,47.798 145.635,47.065 c 14.526,-0.218 30.004,2.043 43.509,9.053 -13.869,16.278 -26.424,36.278 -40.729,78.836 -10.511,31.318 -11.39,50.737 -24.603,67.964 -20.657,-6.499 -42.194,-11.243 -57.378,-11.901 -19.414,-0.511 -31.461,8.978 -29.125,20.075 2.265,11.021 19.857,14.673 31.968,14.892 16.207,0.364 34.606,-4.016 47.961,-10.586 3.944,1.243 11.319,3.652 18.329,5.77 0,0 -7.596,5.256 -13.949,8.903 -1.751,1.022 -8.903,4.892 -15.105,7.885 l 1.458,2.63 c 4.238,-1.973 9.711,-4.602 15.255,-7.739 6.282,-3.944 10.805,-6.499 16.5,-10.368 15.184,4.526 32.848,10.003 49.346,10.292 12.484,0.222 27.446,-4.233 38.908,-11.386 4.159,-2.63 7.881,-5.766 10.804,-9.564 3.216,-4.012 8.761,-15.695 -5.624,-22.19 -9.996,-4.526 -28.467,-5.184 -45.26,1.093 -23.793,8.836 -29.631,14.527 -37.806,19.418 -8.911,-2.115 -15.549,-3.941 -20.008,-5.256 0,0 19.351,-16.06 33.435,-41.244 3.802,0.804 9.053,1.243 13.798,1.168 17.743,-0.729 45.775,-8.103 54.606,-33.581 11.382,-32.847 -7.446,-55.477 -25.259,-69.417 -1.822,-1.391 -3.723,-2.776 -5.695,-4.016 9.417,-15.478 20.293,-20.44 30.732,-21.244 l -0.507,-2.337 h -1.101 c -6.862,10e-4 -22.846,2.996 -38.101,18.544"
   id="SVGID_1_" />
		</defs>
		<radialGradient
   cx="139.7944"
   cy="137.40109"
   r="102.9804"
   id="SVGID_2_"
   gradientUnits="userSpaceOnUse">
			<stop
   id="stop3611"
   style="stop-color:#aea580;stop-opacity:1"
   offset="0" />
			<stop
   id="stop3613"
   style="stop-color:#7e754a;stop-opacity:1"
   offset="1" />
		</radialGradient>
		<use
   id="use3615"
   style="fill:url(#SVGID_2_);overflow:visible"
   x="0"
   y="0"
   width="1000.085"
   height="569.89301"
   xlink:href="#SVGID_1_" />
		<clipPath
   id="SVGID_3_">
			<use
   id="use3618"
   style="overflow:visible"
   x="0"
   y="0"
   width="1000.085"
   height="569.89301"
   xlink:href="#SVGID_1_" />
		</clipPath>
	</g>
	<g
   id="g3620">
		<path
   d="m 557.678,207.865 c -11.541,-0.34 -17.528,-10.155 -17.528,-18.329 0,-11.161 8.07,-15.85 14.779,-16.459 3.065,-0.242 10.923,0.222 11.51,4.364 l 0.514,0.13 1.719,-6.585 c -3.096,-1.332 -7.707,-1.989 -10.186,-1.989 -17.885,0 -26.091,12.112 -26.091,23.458 0,6.849 2.494,11.988 6.273,15.581 3.754,3.569 9.037,5.362 14.748,5.362 6.242,0 14.733,-2.962 18.384,-10.741 l -0.634,-0.272 c -2.882,4.418 -7.547,5.682 -13.488,5.48"
   id="path3622"
   style="fill:#847a4d" />
		<path
   d="m 390.161,143.255 h -22.202 l 0.047,0.744 c 4.103,0.317 8.626,5.588 8.626,13.188 0,5.386 0.079,40.483 0.087,44.943 0,6.329 -5.877,9.457 -8.443,9.596 v 0.566 h 25.711 v -0.566 c -2.559,-0.139 -8.444,-3.164 -8.444,-9.505 l -0.032,-55.529 c 0.562,-0.04 0.879,0 1.656,0 13.371,0 22.36,6.586 22.36,16.78 0,8.479 -7.81,18.3 -20.293,18.982 v 0.72 c 7.485,0 15.105,0.139 20.753,-3.081 4.38,-2.515 9.869,-7.049 9.869,-16.732 -10e-4,-7.251 -4.539,-20.106 -29.695,-20.106"
   id="path3624"
   style="fill:#847a4d" />
		<path
   d="m 434.802,174.376 0.017,-6.091 c 0,0 -4.12,4.411 -11.739,4.411 l -0.047,0.666 c 2.692,0.82 3.825,2.903 3.825,8.388 l -0.015,20.503 c 0,6.31 -5.291,9.327 -7.596,9.474 v 0.559 h 23.192 v -0.559 c -2.328,-0.147 -7.596,-3.204 -7.596,-9.529 0,0 -0.023,-14.278 -0.023,-16.361 0,-2.059 -0.095,-5.766 0.768,-6.748 4.189,-5.485 11.627,-4.61 15.192,-2.329 l 0.127,-0.455 c -2.449,-3.197 -9.57,-8.678 -16.105,-1.929"
   id="path3626"
   style="fill:#847a4d" />
		<path
   d="m 466.945,202.269 0.04,-21.066 c 0,-4.29 0.206,-9.334 0.412,-13.042 0,0 -4.8,4.535 -12.175,4.535 l -0.063,0.713 c 2.447,0.333 3.849,2.756 3.849,8.349 l -0.047,20.44 c 0,6.348 -5.331,9.39 -7.636,9.521 v 0.574 h 23.184 v -0.574 c -2.312,-0.132 -7.564,-3.125 -7.564,-9.45"
   id="path3628"
   style="fill:#847a4d" />
		<path
   d="m 522.676,202.17 -0.017,-20.123 c 0,-7.062 -3.659,-13.042 -12.618,-13.042 -5.48,0 -11.651,3.797 -16.268,6.803 0,-0.931 0.008,-5.101 0.222,-7.524 0,0 -4.563,4.411 -11.96,4.411 l -0.056,0.713 c 2.495,0.472 3.834,2.816 3.834,8.349 v 20.412 c 0,6.353 -5.292,9.417 -7.604,9.557 v 0.559 h 23.176 v -0.559 c -2.305,-0.139 -7.603,-3.204 -7.603,-9.557 l 0.024,-22.305 c 1.52,-1.992 6.312,-5.683 10.756,-5.798 7.342,-0.209 10.139,4.42 10.139,10.432 l 0.008,17.699 c 0,6.341 -5.291,9.39 -7.62,9.529 v 0.559 h 23.2 v -0.559 c -2.314,-0.139 -7.613,-3.203 -7.613,-9.556"
   id="path3630"
   style="fill:#847a4d" />
		<path
   d="m 597.171,168.997 c -12.911,0 -21.647,10.844 -21.647,23.767 0,4.646 1.29,9.596 4.515,13.675 3.129,4.016 8.626,6.958 15.644,6.958 14.796,0 16.982,-10.626 16.982,-10.626 l -0.642,-0.261 c -2.171,5.251 -8.175,5.631 -11.327,5.631 -11.532,0 -19.176,-10.911 -17.695,-23.125 h 29.664 c 0,0 0.071,-1.965 -0.063,-3.406 -0.714,-7.009 -6.156,-12.613 -15.431,-12.613 m 7.438,12.776 -20.975,-0.016 c 0.824,-4.527 6.004,-9.062 12.356,-9.062 9.87,0.001 8.619,9.078 8.619,9.078"
   id="path3632"
   style="fill:#847a4d" />
		<path
   d="m 462.922,161.844 c 3.025,0 5.497,-2.452 5.497,-5.508 0,-3.034 -2.472,-5.517 -5.497,-5.517 -3.05,0 -5.529,2.483 -5.529,5.517 0,3.057 2.479,5.508 5.529,5.508"
   id="path3634"
   style="fill:#847a4d" />
		<path
   d="m 776.832,207.461 c -4.887,0.024 -5.584,-5.782 -5.68,-12.305 l -0.039,-20.665 h 10.756 V 170.8 l -10.691,-0.163 v -8.499 c 0,0 -5.965,9.908 -12.627,10.364 v 0.961 c 0,0 4.348,0.508 4.602,6.021 l 0.064,21.014 c 0.031,7.204 1.393,12.922 8.617,12.884 6.424,-0.052 10.732,-4.024 11.066,-10.23 l -0.619,-0.162 c -0.871,2.791 -2.844,4.447 -5.449,4.471"
   id="path3636"
   style="fill:#847a4d" />
		<path
   d="m 683.167,143.844 c 2.559,0.139 8.428,3.335 8.428,9.688 v 20.511 h -31.691 v -20.511 c 0,-6.353 5.87,-9.548 8.437,-9.688 v -0.566 h -25.363 v 0.566 c 2.551,0.139 8.428,3.335 8.428,9.688 v 48.503 c 0,6.381 -5.869,9.561 -8.428,9.691 v 0.559 h 25.339 v -0.559 c -2.55,-0.13 -8.412,-3.311 -8.412,-9.691 v -23.231 h 31.691 v 23.231 c 0,6.381 -5.861,9.561 -8.428,9.691 v 0.559 h 25.363 v -0.559 c -2.583,-0.13 -8.429,-3.311 -8.429,-9.691 v -48.503 c 0,-6.353 5.862,-9.548 8.437,-9.688 v -0.566 h -25.371 v 0.566"
   id="path3638"
   style="fill:#847a4d" />
		<path
   d="m 809.347,168.942 c -12.943,0 -21.711,10.86 -21.711,23.806 0,4.614 1.322,9.596 4.547,13.699 3.111,4.008 8.641,6.95 15.627,6.95 14.852,0 17.021,-10.649 17.021,-10.649 l -0.617,-0.262 c -2.061,4.95 -8.182,5.655 -11.352,5.655 -11.555,0 -19.215,-10.926 -17.742,-23.18 l 29.711,-0.021 c 0,0 0.088,-1.92 -0.055,-3.406 -0.696,-7.02 -6.153,-12.592 -15.429,-12.592 m 7.445,12.764 -21.021,-0.047 c 0.822,-4.467 6.004,-9.025 12.379,-9.025 9.879,-10e-4 8.642,9.072 8.642,9.072"
   id="path3640"
   style="fill:#847a4d" />
		<path
   d="m 731.833,168.918 c -12.166,0 -22.036,9.814 -22.036,21.921 0,12.086 9.87,21.909 22.036,21.909 12.166,0 22.053,-9.822 22.053,-21.909 0,-12.107 -9.886,-21.921 -22.053,-21.921 m 0,40.147 c -6.93,0 -12.555,-8.135 -12.555,-18.225 0,-10.104 5.625,-18.258 12.555,-18.258 6.963,0 12.594,8.154 12.594,18.258 0,10.09 -5.631,18.225 -12.594,18.225"
   id="path3642"
   style="fill:#847a4d" />
		<path
   d="m 844.246,202.13 -0.039,-50.693 c 0.023,-4.167 0.104,-10.998 0.254,-14.472 0,0 -7.09,6.223 -13.021,6.223 v 0.672 c 3.223,0.634 4.711,2.313 4.711,11.354 l 0.143,47.038 c 0,6.341 -5.258,9.343 -7.58,9.474 v 0.559 h 23.139 v -0.559 c -2.324,-0.13 -7.607,-3.252 -7.607,-9.596"
   id="path3644"
   style="fill:#847a4d" />
		<path
   d="m 609.638,232.871 c -131.271,0 -252.935,1.168 -353.41,3.179 v 1.331 c 100.475,2.028 222.139,3.205 353.41,3.205 131.289,0 252.951,-1.177 353.428,-3.205 v -1.331 c -100.477,-2.011 -222.139,-3.179 -353.428,-3.179"
   id="path3646"
   style="fill:#847a4d" />
	</g>
</g>
</svg>