<?xml version="1.0" encoding="utf-8"?>
<!-- Generator: Adobe Illustrator 18.0.0, SVG Export Plug-In . SVG Version: 6.00 Build 0)  -->
<!DOCTYPE svg PUBLIC "-//W3C//DTD SVG 1.1//EN" "http://www.w3.org/Graphics/SVG/1.1/DTD/svg11.dtd">
<svg version="1.1" id="Layer_1" xmlns="http://www.w3.org/2000/svg" xmlns:xlink="http://www.w3.org/1999/xlink" x="0px" y="0px"
	 viewBox="0 0 329.8 149.1" enable-background="new 0 0 329.8 149.1" xml:space="preserve">
<g>
	<path fill="#231F20" d="M146.8,58.2l-1.1,2.3L118.2,1.1h2.1 M144.6,1.1h2.1l26.4,57.1l-1.1,2.3L144.6,1.1z M173.6,7l1.1-2.3
		l29.4,63.6H202L173.6,7z M124.9,0h-15.4v1.1h2.7l32.1,68l13.3-27.6l13,27.6l13.2-27.5l12.1,26.6h-2.2v1.1h15.4v-1.1h-2.7l-32.1-68
		l-11.8,25l1.2,2.7l7-14.9l8.7,18.9h-13.8l0.9,2h13.8l0.8,1.9h-13.7l0.9,2h13.7l0.4,0.9l-8.4,17.6L149,1.1h2.5V0h-15.4v1.1h2.7
		l17.4,37.6l-8.4,17.5L122.7,1.1h2.2V0z M188.9,25.8l11.6-24.6h-6.8V0h15.4v1.1H203l-12.8,27.3L188.9,25.8z"/>
</g>
<g>
	<path fill="#231F20" d="M123.9,148.9v-13.2h1l8.5,12.1c0-0.1,0-0.2,0-0.3c0-0.1,0-0.2,0-0.3c0-0.1,0-0.2,0-0.4v-11.1h0.8v13.2h-0.9
		l-8.6-12.1c0,0.1,0,0.2,0,0.3c0,0.1,0,0.2,0,0.3c0,0.1,0,0.2,0,0.4v11.2H123.9z"/>
	<path fill="#231F20" d="M137.1,148.9v-13.2h6.7v0.7h-5.9v5.2h5.3v0.7h-5.3v5.9h6.2v0.7H137.1z"/>
	<path fill="#231F20" d="M145.6,135.7h0.9l3.4,11.1c0,0.1,0.1,0.2,0.1,0.3c0,0,0,0.1,0.1,0.2c0-0.1,0-0.1,0-0.2c0,0,0-0.1,0-0.1
		c0,0,0-0.1,0-0.1l3.1-11.2h0.6l3.1,11.2c0,0.1,0,0.1,0,0.1c0,0,0,0.1,0,0.1c0,0,0,0.1,0,0.2c0-0.1,0-0.1,0.1-0.2c0,0,0-0.1,0-0.2
		c0-0.1,0-0.1,0-0.2l3.3-11.1h0.8l-4,13.2h-0.6l-3-11c0,0,0-0.1-0.1-0.2c0-0.1,0-0.1,0-0.2s0-0.1-0.1-0.2c0,0.1,0,0.1-0.1,0.2
		c0,0.1,0,0.1-0.1,0.2c0,0.1,0,0.1-0.1,0.2l-3.1,11h-0.6L145.6,135.7z"/>
	<path fill="#231F20" d="M165.9,135.7h0.9l4.2,6.1l4.2-6.1h0.9l-4.8,6.9v6.3h-0.8v-6.3L165.9,135.7z"/>
	<path fill="#231F20" d="M177.6,142.3c0-1,0.2-1.9,0.5-2.7c0.3-0.8,0.8-1.5,1.4-2.2c0.6-0.6,1.3-1.1,2.1-1.4
		c0.8-0.4,1.6-0.5,2.6-0.5c0.9,0,1.8,0.2,2.6,0.5c0.8,0.3,1.5,0.8,2.1,1.4c0.6,0.6,1,1.3,1.4,2.1c0.3,0.8,0.5,1.7,0.5,2.7
		s-0.2,1.9-0.5,2.7c-0.3,0.8-0.8,1.6-1.4,2.2c-0.6,0.6-1.3,1.1-2.1,1.4c-0.8,0.4-1.6,0.5-2.6,0.5s-1.8-0.2-2.6-0.5
		c-0.8-0.3-1.5-0.8-2.1-1.4c-0.6-0.6-1-1.3-1.4-2.2S177.6,143.3,177.6,142.3z M178.4,142.3c0,0.9,0.1,1.7,0.4,2.4
		c0.3,0.7,0.7,1.4,1.2,1.9c0.5,0.5,1.1,1,1.8,1.3c0.7,0.3,1.4,0.5,2.2,0.5s1.5-0.2,2.2-0.5c0.7-0.3,1.3-0.7,1.8-1.3
		c0.5-0.5,0.9-1.2,1.2-1.9s0.4-1.5,0.4-2.4s-0.1-1.7-0.4-2.4s-0.7-1.4-1.2-1.9c-0.5-0.5-1.1-1-1.8-1.3c-0.7-0.3-1.4-0.5-2.2-0.5
		c-0.8,0-1.5,0.2-2.2,0.5c-0.7,0.3-1.3,0.7-1.8,1.3c-0.5,0.5-0.9,1.2-1.2,1.9C178.5,140.6,178.4,141.4,178.4,142.3z"/>
	<path fill="#231F20" d="M192.8,148.9v-13.2h3.2c0.6,0,1.1,0.1,1.6,0.2c0.5,0.2,1,0.4,1.3,0.7c0.4,0.3,0.7,0.7,0.9,1.1
		c0.2,0.5,0.3,1,0.3,1.5c0,0.6-0.1,1.1-0.4,1.6s-0.6,0.9-1,1.2c-0.4,0.3-0.9,0.6-1.4,0.7c-0.5,0.2-1.1,0.3-1.7,0.3h-0.6l5.1,5.8h-1
		l-5.7-6.3v6.3H192.8z M193.6,142.4h2.2c0.5,0,0.9-0.1,1.3-0.2c0.4-0.1,0.8-0.3,1.1-0.6s0.6-0.6,0.8-0.9s0.3-0.8,0.3-1.4
		c0-0.5-0.1-0.9-0.3-1.3c-0.2-0.4-0.4-0.7-0.7-0.9c-0.3-0.2-0.7-0.4-1.1-0.5c-0.4-0.1-0.8-0.2-1.3-0.2h-2.4V142.4z"/>
	<path fill="#231F20" d="M202.6,148.9v-13.2h0.8v6.1l5.6-6.1h1l-5.2,5.7l5.7,7.5h-1l-5.3-6.9l-0.9,0.9v6H202.6z"/>
</g>
<g>
	<g>
		<path fill="#231F20" d="M0,92.3h1.9l7.3,24c0.1,0.2,0.1,0.5,0.2,0.7c0.1,0.1,0.1,0.2,0.1,0.4c0-0.1,0.1-0.2,0.1-0.4
			c0-0.1,0-0.2,0.1-0.3s0-0.2,0.1-0.3l6.6-24.1h1.2l6.7,24.1c0,0.1,0.1,0.2,0.1,0.3c0,0.1,0.1,0.2,0.1,0.3c0,0.1,0.1,0.2,0.1,0.4
			c0-0.1,0.1-0.2,0.1-0.4c0.1-0.1,0.1-0.2,0.1-0.3s0-0.2,0.1-0.4l7.1-24h1.8l-8.7,28.5h-1.3l-6.5-23.7c-0.1-0.1-0.1-0.2-0.1-0.3
			c0-0.1,0-0.3-0.1-0.4c0-0.1-0.1-0.3-0.1-0.4c0,0.1-0.1,0.3-0.1,0.4c0,0.1-0.1,0.2-0.1,0.4c0,0.1-0.1,0.2-0.1,0.3l-6.6,23.7H8.9
			L0,92.3z"/>
		<path fill="#231F20" d="M36.2,120.8l10.6-29h1l10.5,29h-1.9l-3.9-10.9H42l-3.9,10.9H36.2z M42.5,108.3H52l-4.7-13.2L42.5,108.3z"
			/>
		<path fill="#231F20" d="M62.6,120.8V92.3h1.8v26.9h13v1.6H62.6z"/>
		<path fill="#231F20" d="M81.4,120.8V92.3h5.8c2.1,0,4,0.3,5.8,0.9c1.8,0.6,3.4,1.5,4.7,2.6c1.3,1.2,2.4,2.6,3.2,4.4
			c0.8,1.7,1.2,3.8,1.2,6c0,2.3-0.4,4.3-1.2,6.1c-0.8,1.8-1.8,3.3-3.1,4.6c-1.3,1.2-2.9,2.2-4.7,2.9s-3.7,1-5.8,1H81.4z M83.2,119.2
			h4.6c1.8,0,3.4-0.3,4.9-0.9c1.5-0.6,2.8-1.5,4-2.6c1.1-1.1,2-2.5,2.6-4.1c0.6-1.6,1-3.4,1-5.3c0-2-0.3-3.7-1-5.2
			c-0.6-1.5-1.5-2.8-2.6-3.9c-1.1-1.1-2.4-1.9-4-2.4c-1.5-0.6-3.2-0.8-4.9-0.8h-4.6V119.2z"/>
		<path fill="#231F20" d="M105.6,106.5c0-2.1,0.4-4,1.1-5.8c0.7-1.8,1.7-3.3,3-4.7c1.3-1.3,2.8-2.3,4.5-3.1c1.7-0.8,3.6-1.1,5.5-1.1
			c2,0,3.8,0.4,5.5,1.1c1.7,0.8,3.2,1.8,4.4,3.1c1.3,1.3,2.3,2.9,3,4.6c0.7,1.8,1.1,3.7,1.1,5.8c0,2.1-0.4,4-1.1,5.8s-1.7,3.4-3,4.7
			c-1.3,1.3-2.7,2.4-4.4,3.1c-1.7,0.8-3.5,1.1-5.5,1.1s-3.8-0.4-5.5-1.1c-1.7-0.8-3.2-1.8-4.5-3.1c-1.3-1.3-2.3-2.9-3-4.7
			C105.9,110.6,105.6,108.6,105.6,106.5z M107.4,106.5c0,1.8,0.3,3.6,0.9,5.2s1.5,3,2.6,4.2c1.1,1.2,2.4,2.1,3.9,2.8
			c1.5,0.7,3.1,1,4.8,1s3.3-0.3,4.8-1c1.5-0.7,2.8-1.6,3.9-2.8c1.1-1.2,1.9-2.6,2.6-4.2s0.9-3.3,0.9-5.2c0-1.8-0.3-3.6-0.9-5.2
			s-1.5-3-2.6-4.2c-1.1-1.2-2.4-2.1-3.9-2.8c-1.5-0.7-3.1-1-4.8-1c-1.7,0-3.3,0.3-4.8,1c-1.5,0.7-2.8,1.6-3.9,2.8
			c-1.1,1.2-2,2.6-2.6,4.2S107.4,104.7,107.4,106.5z"/>
		<path fill="#231F20" d="M138.5,120.8V92.3h7c1.2,0,2.3,0.2,3.4,0.5c1.1,0.3,2.1,0.9,2.9,1.5c0.8,0.7,1.5,1.5,2,2.5
			c0.5,1,0.7,2.1,0.7,3.3c0,1.3-0.3,2.5-0.8,3.5c-0.5,1-1.2,1.9-2.1,2.6c-0.9,0.7-1.9,1.2-3,1.6s-2.3,0.6-3.6,0.6h-1.4l11,12.4h-2.3
			l-12.2-13.7v13.7H138.5z M140.3,106.8h4.8c1,0,2-0.1,2.9-0.4c0.9-0.3,1.7-0.7,2.4-1.2s1.3-1.2,1.7-2c0.4-0.8,0.6-1.8,0.6-3
			c0-1.1-0.2-2-0.6-2.8c-0.4-0.8-0.9-1.5-1.6-2s-1.4-0.9-2.3-1.2c-0.9-0.3-1.8-0.4-2.7-0.4h-5.2V106.8z"/>
		<path fill="#231F20" d="M159.7,120.8V92.3h12.7v1.6h-11v11.3h9.9v1.6h-9.9v14.1H159.7z"/>
		<path fill="#231F20" d="M182.9,120.8l10.6-29h1l10.5,29h-1.9l-3.9-10.9h-10.5l-3.9,10.9H182.9z M189.2,108.3h9.4l-4.7-13.2
			L189.2,108.3z"/>
		<path fill="#231F20" d="M207.9,118.3l1.1-1.3c0.9,0.8,1.9,1.4,2.9,1.9c1,0.5,2.2,0.7,3.4,0.7c0.8,0,1.6-0.1,2.3-0.4
			c0.8-0.3,1.4-0.6,2-1.1c0.6-0.5,1-1.1,1.3-1.8c0.3-0.7,0.5-1.4,0.5-2.3c0-1-0.2-1.9-0.6-2.6c-0.4-0.7-0.9-1.4-1.5-2
			c-0.6-0.6-1.3-1.1-2.1-1.5c-0.8-0.4-1.6-0.9-2.4-1.3c-0.8-0.4-1.7-0.9-2.5-1.4c-0.8-0.5-1.5-1-2.1-1.6s-1.1-1.3-1.5-2.1
			c-0.4-0.8-0.6-1.8-0.6-2.8c0-1,0.2-2,0.6-2.8c0.4-0.8,0.9-1.6,1.6-2.1s1.4-1,2.3-1.4s1.8-0.5,2.7-0.5c1.5,0,2.8,0.2,4,0.7
			c1.2,0.5,2.2,1.3,3.2,2.4l-1.3,1.1c-0.9-1-1.8-1.7-2.7-2.1c-0.9-0.4-2-0.5-3.2-0.5c-0.7,0-1.3,0.1-2,0.3c-0.6,0.2-1.2,0.6-1.7,1
			c-0.5,0.4-0.9,1-1.2,1.6c-0.3,0.6-0.4,1.4-0.4,2.2c0,0.9,0.2,1.7,0.5,2.3c0.3,0.7,0.8,1.2,1.4,1.8s1.3,1,2,1.4
			c0.8,0.4,1.5,0.8,2.4,1.3c0.9,0.4,1.7,0.9,2.5,1.4s1.6,1.1,2.2,1.7s1.2,1.4,1.6,2.3c0.4,0.9,0.6,1.9,0.6,3.1c0,1.1-0.2,2-0.7,2.9
			c-0.4,0.9-1,1.6-1.8,2.3s-1.6,1.1-2.6,1.5c-1,0.4-2,0.5-3,0.5c-1.4,0-2.7-0.3-4-0.8C210,120,208.9,119.2,207.9,118.3z"/>
		<path fill="#231F20" d="M226.1,93.9v-1.6h16.2v1.6h-7.2v26.9h-1.8V93.9H226.1z"/>
		<path fill="#231F20" d="M245.2,106.5c0-2.1,0.4-4,1.1-5.8c0.7-1.8,1.7-3.3,3-4.7c1.3-1.3,2.8-2.3,4.5-3.1c1.7-0.8,3.6-1.1,5.5-1.1
			c2,0,3.8,0.4,5.5,1.1c1.7,0.8,3.2,1.8,4.4,3.1c1.3,1.3,2.3,2.9,3,4.6c0.7,1.8,1.1,3.7,1.1,5.8c0,2.1-0.4,4-1.1,5.8s-1.7,3.4-3,4.7
			c-1.3,1.3-2.7,2.4-4.4,3.1c-1.7,0.8-3.5,1.1-5.5,1.1c-2,0-3.8-0.4-5.5-1.1c-1.7-0.8-3.2-1.8-4.5-3.1c-1.3-1.3-2.3-2.9-3-4.7
			C245.6,110.6,245.2,108.6,245.2,106.5z M247.1,106.5c0,1.8,0.3,3.6,0.9,5.2s1.5,3,2.6,4.2c1.1,1.2,2.4,2.1,3.9,2.8
			c1.5,0.7,3.1,1,4.8,1c1.7,0,3.3-0.3,4.8-1c1.5-0.7,2.8-1.6,3.9-2.8c1.1-1.2,1.9-2.6,2.6-4.2c0.6-1.6,0.9-3.3,0.9-5.2
			c0-1.8-0.3-3.6-0.9-5.2s-1.5-3-2.6-4.2c-1.1-1.2-2.4-2.1-3.9-2.8c-1.5-0.7-3.1-1-4.8-1c-1.7,0-3.3,0.3-4.8,1
			c-1.5,0.7-2.8,1.6-3.9,2.8c-1.1,1.2-2,2.6-2.6,4.2S247.1,104.7,247.1,106.5z"/>
		<path fill="#231F20" d="M278.2,120.8V92.3h7c1.2,0,2.3,0.2,3.4,0.5c1.1,0.3,2.1,0.9,2.9,1.5c0.8,0.7,1.5,1.5,2,2.5
			c0.5,1,0.7,2.1,0.7,3.3c0,1.3-0.3,2.5-0.8,3.5c-0.5,1-1.2,1.9-2.1,2.6s-1.9,1.2-3,1.6c-1.1,0.4-2.3,0.6-3.6,0.6h-1.4l11,12.4h-2.3
			l-12.2-13.7v13.7H278.2z M279.9,106.8h4.8c1,0,2-0.1,2.9-0.4c0.9-0.3,1.7-0.7,2.4-1.2c0.7-0.5,1.3-1.2,1.7-2
			c0.4-0.8,0.6-1.8,0.6-3c0-1.1-0.2-2-0.6-2.8c-0.4-0.8-0.9-1.5-1.6-2s-1.4-0.9-2.3-1.2c-0.9-0.3-1.8-0.4-2.7-0.4h-5.2V106.8z"/>
		<path fill="#231F20" d="M299.3,120.8V92.3h1.8v28.5H299.3z"/>
		<path fill="#231F20" d="M305.4,120.8l10.6-29h1l10.5,29h-1.9l-3.9-10.9h-10.5l-3.9,10.9H305.4z M311.7,108.3h9.4l-4.7-13.2
			L311.7,108.3z"/>
	</g>
	<g>
		<path fill="#231F20" d="M324.3,94.6c0-0.4,0.1-0.7,0.2-1.1c0.1-0.3,0.3-0.6,0.6-0.9c0.3-0.2,0.5-0.4,0.9-0.6s0.7-0.2,1.1-0.2
			c0.4,0,0.7,0.1,1.1,0.2s0.6,0.3,0.9,0.6c0.2,0.3,0.4,0.5,0.6,0.9c0.1,0.3,0.2,0.7,0.2,1.1c0,0.4-0.1,0.7-0.2,1.1s-0.3,0.6-0.6,0.9
			s-0.5,0.4-0.9,0.6c-0.3,0.1-0.7,0.2-1.1,0.2c-0.4,0-0.7-0.1-1.1-0.2c-0.3-0.1-0.6-0.3-0.9-0.6c-0.3-0.3-0.4-0.5-0.6-0.9
			S324.3,95,324.3,94.6z M324.5,94.6c0,0.3,0.1,0.7,0.2,1s0.3,0.6,0.5,0.8c0.2,0.2,0.5,0.4,0.8,0.5c0.3,0.1,0.6,0.2,1,0.2
			c0.3,0,0.7-0.1,1-0.2c0.3-0.1,0.6-0.3,0.8-0.5c0.2-0.2,0.4-0.5,0.5-0.8c0.1-0.3,0.2-0.6,0.2-1s-0.1-0.7-0.2-1
			c-0.1-0.3-0.3-0.6-0.5-0.8c-0.2-0.2-0.5-0.4-0.8-0.5c-0.3-0.1-0.6-0.2-1-0.2c-0.4,0-0.7,0.1-1,0.2c-0.3,0.1-0.6,0.3-0.8,0.5
			c-0.2,0.2-0.4,0.5-0.5,0.8C324.6,93.9,324.5,94.2,324.5,94.6z M326.2,96.1v-3.2h0.9c0.1,0,0.3,0,0.4,0.1s0.2,0.1,0.3,0.2
			c0.1,0.1,0.2,0.2,0.2,0.3c0.1,0.1,0.1,0.2,0.1,0.4c0,0.2,0,0.3-0.1,0.4c-0.1,0.1-0.1,0.2-0.2,0.3s-0.2,0.1-0.3,0.2
			c-0.1,0-0.3,0.1-0.4,0.1h-0.1l1.3,1.4h-0.4l-1.3-1.5v1.5H326.2z M326.5,94.4h0.5c0.2,0,0.4-0.1,0.5-0.2c0.1-0.1,0.2-0.3,0.2-0.5
			c0-0.2-0.1-0.3-0.2-0.5s-0.3-0.2-0.5-0.2h-0.6V94.4z"/>
	</g>
</g>
</svg>
