<?xml version="1.0" encoding="utf-8"?>
<!-- Generator: Adobe Illustrator 18.0.0, SVG Export Plug-In . SVG Version: 6.00 Build 0)  -->
<!DOCTYPE svg PUBLIC "-//W3C//DTD SVG 1.1//EN" "http://www.w3.org/Graphics/SVG/1.1/DTD/svg11.dtd">
<svg version="1.1" id="Layer_1" xmlns="http://www.w3.org/2000/svg" xmlns:xlink="http://www.w3.org/1999/xlink" x="0px" y="0px"
	 viewBox="0 0 314 375.4" enable-background="new 0 0 314 375.4" xml:space="preserve">
<path fill="#231F20" d="M314,196.3v-4.1h-25.3v47.1h4.4v-20.5h15.9v-4.1h-15.9v-18.3 M272,205.2c0,6.2-4.2,10.3-10.8,10.3h-8
	l20.6,23.8h5.6l-18.2-20.8h2.4c7,0,13-6,13-13c0-7.8-5.9-13.4-14.2-13.4h-14.9v47.2h4.5v-43.1h9.3C268.7,196.3,272,201.5,272,205.2
	 M231.6,215.5c0-11.4-8.2-19.7-19.6-19.7c-11.4,0-19.3,8.1-19.3,19.9c0,11.1,8.8,20.2,19.5,20.2C222,235.8,231.6,228.9,231.6,215.5
	 M236.4,215.8c0,13.7-10.6,24.4-24.2,24.4c-13.8,0-24.3-10.5-24.3-24.5c0-13.9,10.3-24.4,24-24.4
	C226.2,191.3,236.4,201.6,236.4,215.8 M154.4,196.1h-7.9v39.2h7.4c12.7,0,20.3-8.8,20.3-19.8C174.2,204,165.9,196.1,154.4,196.1
	 M153.8,239.4H142v-47.2h12c14.7,0,24.9,9.1,24.9,23.3C178.9,229.6,168.6,239.4,153.8,239.4 M133.6,239.4v-4.2h-19.1v-43h-4.4v47.2
	H133.6z M71.4,226.4h20.1l-10-25L71.4,226.4z M81.5,190.8l20.3,48.5h-4.9l-3.7-8.9H69.7l-3.7,8.9h-4.9L81.5,190.8z M19,240.6
	l12.4-30l12.4,30l19-48.5h-4.9l-14.3,37.4l-12.3-29.3l-12,29.4L4.9,192.2H0L19,240.6z M288,375.4c3.3,0,6-2.5,6-6.1
	c0-3-1.9-5-4.9-6.8c-2.6-1.5-4.4-2.4-4.4-5.1c0-2.3,1.6-3.6,3.3-3.6c1.5,0,2.8,0.5,4.1,1.7l1.4-1.6c-1.5-1.5-3.3-2.2-5.5-2.2
	c-3.2,0-5.5,2.3-5.5,5.6c0,3.3,2.2,5.1,5.3,6.9c2.7,1.6,4,2.7,4,5.1c0,2.4-1.4,4-3.7,4c-2,0-3.3-0.7-4.6-1.9l-1.3,1.6
	C283.8,374.6,285.5,375.4,288,375.4 M279.2,354.1v-2h-12v2h4.9V375h2.2v-20.9H279.2z M261.8,358.4c0,3-2.1,5-5.3,5h-3.9l10,11.6h2.7
	l-8.8-10.1h1.2c3.4,0,6.3-2.9,6.3-6.4c0-3.8-2.9-6.5-6.9-6.5H250V375h2.2v-20.9h4.5C260.2,354.1,261.8,356.6,261.8,358.4
	 M242.3,363.4c0-5.5-4-9.6-9.6-9.6c-5.5,0-9.3,4-9.3,9.6c0,5.4,4.3,9.8,9.5,9.8C237.6,373.3,242.3,369.9,242.3,363.4 M244.6,363.6
	c0,6.6-5.2,11.8-11.7,11.8c-6.7,0-11.8-5.1-11.8-11.9c0-6.7,5-11.8,11.6-11.8C239.6,351.7,244.6,356.6,244.6,363.6 M211.6,375.4
	c3.3,0,6-2.5,6-6.1c0-3-1.9-5-5-6.8c-2.6-1.5-4.3-2.4-4.3-5.1c0-2.3,1.6-3.6,3.3-3.6c1.5,0,2.8,0.5,4.1,1.7l1.3-1.6
	c-1.5-1.5-3.3-2.2-5.5-2.2c-3.1,0-5.5,2.3-5.5,5.6c0,3.3,2.2,5.1,5.3,6.9c2.7,1.6,3.9,2.7,3.9,5.1c0,2.4-1.4,4-3.7,4
	c-2,0-3.3-0.7-4.6-1.9l-1.3,1.6C207.4,374.6,209.2,375.4,211.6,375.4 M201.6,375v-2h-10.6v-8h9.6v-2h-9.6v-8.9h9.9v-2h-12.1V375
	H201.6z M180.8,358.4c0,3-2.1,5-5.3,5h-3.9l10,11.6h2.7l-8.8-10.1h1.2c3.4,0,6.3-2.9,6.3-6.4c0-3.8-2.9-6.5-6.9-6.5H169V375h2.1
	v-20.9h4.5C179.2,354.1,180.8,356.6,180.8,358.4 M144.7,363.8c-1.9,1.4-3.6,3.1-3.6,5.4c0,2.3,1.8,4.2,4.1,4.2c2.3,0,4.2-1,5.8-2.4
	L144.7,363.8z M145.4,353.6c-1.6,0-3.1,1.2-3.1,3l1.5,3.3l1.2,1.4c1.4-1,3.3-2.6,3.3-4.6C148.4,354.8,147.2,353.6,145.4,353.6
	 M154.4,375l-2.1-2.5c-2,1.7-4.2,2.8-7,2.8c-3.5,0-6.3-2.6-6.3-6c0-3.1,2.3-5.4,4.5-7l-1.4-1.6c-1-1.2-1.9-2.5-1.9-4.2
	c0-2.7,2.4-4.9,5.2-4.9c3.1,0,5.2,2.1,5.2,4.8c0,2.7-2.2,4.6-4.2,6.1l6.2,7l2-2.4l1.5,1.4l-2.3,2.5l3.4,3.8H154.4z M121,375.4
	c3.3,0,6-2.5,6-6.1c0-3-1.9-5-4.9-6.8c-2.6-1.5-4.4-2.4-4.4-5.1c0-2.3,1.6-3.6,3.3-3.6c1.5,0,2.8,0.5,4.1,1.7l1.3-1.6
	c-1.5-1.5-3.3-2.2-5.5-2.2c-3.2,0-5.5,2.3-5.5,5.6c0,3.3,2.1,5.1,5.3,6.9c2.7,1.6,4,2.7,4,5.1c0,2.4-1.4,4-3.7,4
	c-2,0-3.3-0.7-4.6-1.9L115,373C116.8,374.6,118.5,375.4,121,375.4 M112,375v-2h-9.3v-20.9h-2.1V375H112z M95,375v-2H84.4v-8h9.6v-2
	h-9.6v-8.9h10v-2H82.3V375H95z M77.8,354.1v-2h-12v2h4.9V375h2.2v-20.9H77.8z M61.4,363.4c0-5.5-4-9.6-9.6-9.6c-5.5,0-9.3,4-9.3,9.6
	c0,5.4,4.2,9.8,9.5,9.8C56.7,373.3,61.4,369.9,61.4,363.4 M63.7,363.6c0,6.6-5.2,11.8-11.7,11.8c-6.7,0-11.8-5.1-11.8-11.9
	c0-6.7,5-11.8,11.6-11.8C58.7,351.7,63.7,356.6,63.7,363.6 M34.7,375v-22.9h-2.2v10.2H20.2v-10.2H18V375h2.2v-10.7h12.3V375H34.7z
	 M251.2,301.9h20.1l-10-25L251.2,301.9z M261.3,266.3l20.3,48.5h-4.9l-3.7-8.9h-23.5l-3.6,8.9H241L261.3,266.3z M235.3,267.6h-4.5
	v47.2h4.5V267.6z M214.1,280.7c0,6.2-4.2,10.3-10.8,10.3h-7.9l20.6,23.8h5.6L203.4,294h2.5c7,0,13-6,13-13c0-7.8-6-13.5-14.2-13.5
	h-14.9v47.2h4.5v-43.1h9.3C210.8,271.7,214.1,277,214.1,280.7 M173.8,290.9c0-11.4-8.2-19.7-19.7-19.7c-11.4,0-19.3,8.2-19.3,19.9
	c0,11.1,8.8,20.2,19.5,20.2C164.1,311.3,173.8,304.3,173.8,290.9 M178.6,291.3c0,13.7-10.6,24.4-24.2,24.4
	c-13.8,0-24.3-10.5-24.3-24.5c0-13.9,10.3-24.4,24-24.4C168.3,266.8,178.6,277.1,178.6,291.3 M127.2,271.7v-4.2h-24.7v4.2h10.1v43.1
	h4.5v-43.1H127.2z M86.4,315.6c6.9,0,12.3-5.2,12.3-12.6c0-6.3-3.9-10.3-10.2-14c-5.3-3.1-8.9-5-8.9-10.6c0-4.7,3.2-7.4,6.8-7.4
	c3.1,0,5.7,1.2,8.5,3.6l2.8-3.3c-3.1-3-6.9-4.5-11.3-4.5c-6.5,0-11.3,4.7-11.3,11.7c0,6.8,4.5,10.4,10.9,14.1
	c5.6,3.3,8.2,5.6,8.2,10.5c0,4.9-2.9,8.2-7.5,8.2c-4.1,0-6.8-1.4-9.6-3.9l-2.7,3.2C77.7,314,81.3,315.6,86.4,315.6 M40.3,301.9h20.1
	l-10-25L40.3,301.9z M50.4,266.3l20.3,48.5h-4.9l-3.7-8.9H38.6l-3.6,8.9h-4.9L50.4,266.3z"/>
<path fill="#231F20" d="M125.7,104.2l-2,4.2L74.6,2h3.8 M121.7,2h3.8l47.3,102.2l-2,4.2L121.7,2z M173.7,12.5l2-4.2l52.6,113.9h-3.8
	L173.7,12.5z M86.5,0H58.9v2h4.9l57.4,121.7L145,74.3l23.3,49.4L192,74.4l21.7,47.7h-4v2h27.6v-2h-4.9L175,0.3L153.9,45l2.2,4.8
	l12.6-26.7l15.5,33.9h-24.7l1.7,3.6h24.7l1.5,3.4h-24.6l1.7,3.6h24.6l0.7,1.6l-15.1,31.5L129.6,2h4.5V0h-27.6v2h4.9l31.1,67.3
	l-15.1,31.4L82.5,2h4V0z M201,46.1L221.8,2h-12.1V0h27.6v2h-11l-23,48.9L201,46.1z"/>
<path fill="#231F20" d="M279.5,271.6h-2v-0.7h4.9v0.7h-2v7.1h-0.9 M288,277.3L288,277.3l2.5-6.4h1.2v7.9h-0.9v-5.9h0l-2.3,5.9h-0.9
	l-2.4-5.9h0v5.9h-1v-7.9h1.3L288,277.3z"/>
</svg>
